<?xml version="1.0" encoding="UTF-8" standalone="no" ?>
<!DOCTYPE svg PUBLIC "-//W3C//DTD SVG 1.1//EN" "http://www.w3.org/Graphics/SVG/1.1/DTD/svg11.dtd">
<svg xmlns="http://www.w3.org/2000/svg" xmlns:xlink="http://www.w3.org/1999/xlink" version="1.1" width="1280" height="1024" viewBox="0 0 1280 1024" xml:space="preserve">
<desc>Created with Fabric.js 3.6.3</desc>
<defs>
</defs>
<g transform="matrix(1.9692780337941629 0 0 1.9692780337941629 640.0153846153846 512.012312418764)" id="background-logo"  >
<rect style="stroke: none; stroke-width: 1; stroke-dasharray: none; stroke-linecap: butt; stroke-dashoffset: 0; stroke-linejoin: miter; stroke-miterlimit: 4; fill: rgb(188,236,236); fill-opacity: 0; fill-rule: nonzero; opacity: 1;"  paint-order="stroke"  x="-325" y="-260" rx="0" ry="0" width="650" height="520" />
</g>
<g transform="matrix(1.5614909227044502 0 0 1.5614909227044502 640.0153846153846 347.97145220371027)" id="logo-logo"  >
<g style=""  paint-order="stroke"   >
		<g transform="matrix(2.3282813645427125 0 0 -2.3282813645427125 -0.0009364895080921087 -106.69116524880528)"  >
<path style="stroke: none; stroke-width: 1; stroke-dasharray: none; stroke-linecap: butt; stroke-dashoffset: 0; stroke-linejoin: miter; stroke-miterlimit: 4; fill: rgb(223,30,38); fill-rule: nonzero; opacity: 1;"  paint-order="stroke"  transform=" translate(28.80960222351227, -10.3885)" d="m 0 0 c -1.16 0 -2.331 0.343 -3.353 1.057 c -7.488 5.231 -16.292 7.996 -25.457 7.996 c -9.164 0 -17.968 -2.765 -25.457 -7.996 c -2.653 -1.85 -6.308 -1.207 -8.16 1.45 c -1.856 2.654 -1.207 6.305 1.447 8.16 c 9.467 6.614 20.593 10.11 32.17 10.11 c 11.579 0 22.704 -3.496 32.171 -10.11 C 6.015 8.812 6.663 5.161 4.809 2.507 C 3.669 0.875 1.85 0 0 0" stroke-linecap="round" />
</g>
		<g transform="matrix(2.3282813645427125 0 0 -2.3282813645427125 -0.0008647715982306181 106.69044736361187)"  >
<path style="stroke: none; stroke-width: 1; stroke-dasharray: none; stroke-linecap: butt; stroke-dashoffset: 0; stroke-linejoin: miter; stroke-miterlimit: 4; fill: rgb(223,30,38); fill-rule: nonzero; opacity: 1;"  paint-order="stroke"  transform=" translate(-0.00002857942713774264, -10.38880833266305)" d="m 0 0 c -11.578 0 -22.704 3.496 -32.17 10.11 c -2.654 1.856 -3.303 5.507 -1.448 8.161 c 1.852 2.657 5.504 3.302 8.161 1.451 c 7.489 -5.232 16.292 -7.997 25.457 -7.997 c 9.165 0 17.969 2.765 25.457 7.997 c 2.65 1.851 6.306 1.206 8.161 -1.451 c 1.855 -2.654 1.206 -6.305 -1.447 -8.161 C 22.703 3.496 11.578 0 0 0" stroke-linecap="round" />
</g>
		<g transform="matrix(2.3282813645427125 0 0 -2.3282813645427125 -135.60143495233217 -0.001396968818738742)"  >
<path style="stroke: none; stroke-width: 1; stroke-dasharray: none; stroke-linecap: butt; stroke-dashoffset: 0; stroke-linejoin: miter; stroke-miterlimit: 4; fill: rgb(223,30,38); fill-rule: nonzero; opacity: 1;"  paint-order="stroke"  transform=" translate(12.867999999999999, -27.655499999999996)" d="m 0 0 c 0 2.872 1.262 4.717 3.639 5.219 c 0.302 0.064 -0.114 0.643 0.252 0.643 c -12.016 0 -21.794 9.775 -21.794 21.793 c 0 12.018 9.778 21.794 21.794 21.794 c -0.327 0 -0.063 1.006 -0.311 1.057 c -2.211 0.457 -2.046 1.893 -2.046 4.805 c 0 2.925 -0.309 4.625 1.939 5.066 c 0.24 0.048 0.105 0.796 0.418 0.796 c -18.483 0 -33.518 -15.036 -33.518 -33.518 c 0 -18.482 15.035 -33.517 33.518 -33.517 c -0.381 0 0.2 0.959 -0.112 1.028 C 1.435 -4.314 0 -2.857 0 0" stroke-linecap="round" />
</g>
		<g transform="matrix(2.3282813645427125 0 0 -2.3282813645427125 135.60143495233217 -0.0011641406823343914)"  >
<path style="stroke: none; stroke-width: 1; stroke-dasharray: none; stroke-linecap: butt; stroke-dashoffset: 0; stroke-linejoin: miter; stroke-miterlimit: 4; fill: rgb(223,30,38); fill-rule: nonzero; opacity: 1;"  paint-order="stroke"  transform=" translate(-16.759, 33.518)" d="m 0 0 c 0.731 0 0.107 -0.873 0.495 -1.129 c 1.33 -0.88 2.107 -2.377 2.107 -4.884 c 0 -2.69 -0.654 -4.259 -2.362 -4.915 c -0.347 -0.133 0.308 -0.797 -0.24 -0.797 c 12.015 0 21.793 -9.775 21.793 -21.793 c 0 -12.019 -9.778 -21.793 -21.793 -21.793 c 0.472 0 0.122 -1.02 0.476 -1.118 c 2.074 -0.578 3.021 -1.798 3.021 -4.564 c 0 -2.831 -1.186 -4.236 -3.398 -4.821 c -0.319 -0.084 0.308 -1.222 -0.099 -1.222 c 18.481 0 33.518 15.036 33.518 33.518 C 33.518 -15.036 18.481 0 0 0" stroke-linecap="round" />
</g>
		<g transform="matrix(2.3282813645427125 0 0 -2.3282813645427125 -0.014886394299765016 -0.001396968818738742)"  >
<linearGradient id="SVGID_19588" gradientUnits="userSpaceOnUse" gradientTransform="matrix(1 0 0 1 -79.27702696108018 -5.862000000000002)"  x1="0" y1="0" x2="0" y2="67">
<stop offset="0%" style="stop-color:rgb(23,234,217);stop-opacity: 1"/>
<stop offset="100%" style="stop-color:rgb(96,120,234);stop-opacity: 1"/>
</linearGradient>
<path style="stroke: none; stroke-width: 1; stroke-dasharray: none; stroke-linecap: butt; stroke-dashoffset: 0; stroke-linejoin: miter; stroke-miterlimit: 4; fill: url(#SVGID_19588); fill-rule: nonzero; opacity: 1;"  paint-order="stroke"  transform=" translate(37.6895937265171, -27.655499999999996)" d="m 0 0 c 0 3.007 1.135 4.664 3.799 5.002 c 0.204 0.025 -0.231 0.86 0 0.86 c -13.645 0 -23.647 10.139 -33.75 21.793 c 10.103 11.655 20.105 21.794 33.75 21.794 c -0.392 0 -0.029 1.176 -0.334 1.244 c -2.219 0.492 -3 1.557 -3 4.404 c 0 2.833 0.876 4.742 3.063 5.33 c 0.313 0.084 -0.134 0.746 0.271 0.746 c -18.095 0 -30.28 -11.754 -41.483 -24.547 c -10.955 12.515 -22.851 24.03 -40.295 24.53 c -0.393 0.011 -0.788 0.017 -1.187 0.017 c 0.551 0 -0.313 -0.905 0.192 -1.047 c 2.467 -0.692 3.195 -2.127 3.195 -4.815 c 0 -2.815 -0.74 -4.06 -3.386 -4.625 c -0.397 -0.085 0.422 -1.237 -0.001 -1.237 c 13.645 0 23.646 -10.139 33.75 -21.794 C -55.52 16.001 -65.521 5.862 -79.166 5.862 c 0.339 0 0.079 -1.003 0.355 -1.057 c 2.36 -0.473 3.096 -1.907 3.096 -4.805 c 0 -2.874 -0.285 -4.014 -2.586 -4.515 c -0.291 -0.064 -0.5 -1.347 -0.865 -1.347 c 18.092 0 30.28 11.751 41.482 24.547 c 11.203 -12.793 23.388 -24.547 41.483 -24.547 c -0.513 0 0.386 1.131 -0.001 1.254 C 1.741 -3.951 0 -2.726 0 0" stroke-linecap="round" />
</g>
		<g transform="matrix(2.3282813645427125 0 0 -2.3282813645427125 -96.58200039209731 -64.39141507406615)"  >
<path style="stroke: none; stroke-width: 1; stroke-dasharray: none; stroke-linecap: butt; stroke-dashoffset: 0; stroke-linejoin: miter; stroke-miterlimit: 4; fill: rgb(255,190,88); fill-rule: nonzero; opacity: 1;"  paint-order="stroke"  transform=" translate(-5.862500000000001, 0)" d="m 0 0 c 0 -3.238 2.625 -5.862 5.862 -5.862 c 3.238 0 5.863 2.624 5.863 5.862 c 0 3.238 -2.625 5.862 -5.863 5.862 C 2.625 5.862 0 3.238 0 0" stroke-linecap="round" />
</g>
		<g transform="matrix(2.3282813645427125 0 0 -2.3282813645427125 -96.5829317046431 64.38838830829226)"  >
<path style="stroke: none; stroke-width: 1; stroke-dasharray: none; stroke-linecap: butt; stroke-dashoffset: 0; stroke-linejoin: miter; stroke-miterlimit: 4; fill: rgb(255,190,88); fill-rule: nonzero; opacity: 1;"  paint-order="stroke"  transform=" translate(5.862500000000001, 0)" d="m 0 0 c 0 3.237 -2.625 5.862 -5.862 5.862 c -3.238 0 -5.863 -2.625 -5.863 -5.862 c 0 -3.238 2.625 -5.862 5.863 -5.862 C -2.625 -5.862 0 -3.238 0 0" stroke-linecap="round" />
</g>
		<g transform="matrix(2.3282813645427125 0 0 -2.3282813645427125 96.58223322023377 -64.39141507406615)"  >
<path style="stroke: none; stroke-width: 1; stroke-dasharray: none; stroke-linecap: butt; stroke-dashoffset: 0; stroke-linejoin: miter; stroke-miterlimit: 4; fill: rgb(255,190,88); fill-rule: nonzero; opacity: 1;"  paint-order="stroke"  transform=" translate(-5.862500000000001, 0)" d="m 0 0 c 0 -3.238 2.624 -5.862 5.862 -5.862 c 3.238 0 5.863 2.624 5.863 5.862 c 0 3.238 -2.625 5.862 -5.863 5.862 C 2.624 5.862 0 3.238 0 0" stroke-linecap="round" />
</g>
		<g transform="matrix(2.3282813645427125 0 0 -2.3282813645427125 96.58130190768776 64.38838830829226)"  >
<path style="stroke: none; stroke-width: 1; stroke-dasharray: none; stroke-linecap: butt; stroke-dashoffset: 0; stroke-linejoin: miter; stroke-miterlimit: 4; fill: rgb(255,190,88); fill-rule: nonzero; opacity: 1;"  paint-order="stroke"  transform=" translate(5.862500000000001, 0)" d="m 0 0 c 0 3.237 -2.625 5.862 -5.862 5.862 c -3.239 0 -5.863 -2.625 -5.863 -5.862 c 0 -3.238 2.624 -5.862 5.863 -5.862 C -2.625 -5.862 0 -3.238 0 0" stroke-linecap="round" />
</g>
		<g transform="matrix(2.3282813645427125 0 0 -2.3282813645427125 96.57943928259624 -0.0007794127480735824)"  >
<path style="stroke: none; stroke-width: 1; stroke-dasharray: none; stroke-linecap: butt; stroke-dashoffset: 0; stroke-linejoin: miter; stroke-miterlimit: 4; fill: rgb(223,30,38); fill-rule: nonzero; opacity: 1;"  paint-order="stroke"  transform=" translate(-9.830000000000002, 8.052265241168898)" d="m 0 0 c 0 3.293 2.289 4.571 5.09 2.835 l 12.47 -7.729 c 2.8 -1.737 2.8 -4.579 0 -6.316 L 5.09 -18.94 C 2.289 -20.675 0 -19.398 0 -16.104 Z" stroke-linecap="round" />
</g>
		<g transform="matrix(2.3282813645427125 0 0 -2.3282813645427125 -96.58130190768793 -0.0007794127480735824)"  >
<path style="stroke: none; stroke-width: 1; stroke-dasharray: none; stroke-linecap: butt; stroke-dashoffset: 0; stroke-linejoin: miter; stroke-miterlimit: 4; fill: rgb(223,30,38); fill-rule: nonzero; opacity: 1;"  paint-order="stroke"  transform=" translate(9.8305, -8.051734758831103)" d="m 0 0 c 0 -3.294 -2.29 -4.571 -5.09 -2.836 l -12.471 7.73 c -2.8 1.737 -2.8 4.579 0 6.316 L -5.09 18.939 C -2.29 20.675 0 19.397 0 16.104 Z" stroke-linecap="round" />
</g>
</g>
</g>
</svg>